<svg xmlns="http://www.w3.org/2000/svg" width="40" height="40" viewBox="0 0 40 40" fill="none">
  <defs>
    <linearGradient id="signal" x1="7" y1="10" x2="33" y2="30" gradientUnits="userSpaceOnUse">
      <stop stop-color="#8BFFB7"/>
      <stop offset=".52" stop-color="#57D9FF"/>
      <stop offset="1" stop-color="#B49BFF"/>
    </linearGradient>
  </defs>
  <rect width="40" height="40" rx="12" fill="#111827"/>
  <path d="M11 10.5h18a5.5 5.5 0 0 1 5.5 5.5v7a5.5 5.5 0 0 1-5.5 5.5h-8.2L14 34v-5.8h-3A5.5 5.5 0 0 1 5.5 22.7V16a5.5 5.5 0 0 1 5.5-5.5Z" fill="#1D293B" stroke="#34445D" stroke-width="1.2" stroke-linejoin="round"/>
  <path d="M11 20h2.2l2-4.1 3.1 8.2 3.1-8.2 2.1 5.2 1.4-2.6H29" stroke="url(#signal)" stroke-width="2.2" stroke-linecap="round" stroke-linejoin="round"/>
</svg>
